<mxfile host="app.diagrams.net" modified="2022-07-27T20:39:23.288Z" agent="5.0 (Windows NT 10.0; Win64; x64) AppleWebKit/537.36 (KHTML, like Gecko) Chrome/103.0.5060.114 Safari/537.36 OPR/89.0.4447.64" etag="Y4zxgg6HRRUmJ5WbSlDr" version="20.2.2" type="github">
  <diagram id="v4G35rTler4ZaaxGdGWj" name="Page-1">
    <mxGraphModel dx="2231" dy="795" grid="1" gridSize="10" guides="1" tooltips="1" connect="1" arrows="1" fold="1" page="1" pageScale="1" pageWidth="850" pageHeight="1100" math="0" shadow="0">
      <root>
        <mxCell id="0" />
        <mxCell id="1" parent="0" />
        <mxCell id="aPKI6MGES9-VmgoMAELp-3" style="edgeStyle=orthogonalEdgeStyle;rounded=0;orthogonalLoop=1;jettySize=auto;html=1;exitX=0.75;exitY=0.1;exitDx=0;exitDy=0;exitPerimeter=0;" parent="1" source="aPKI6MGES9-VmgoMAELp-2" edge="1">
          <mxGeometry relative="1" as="geometry">
            <mxPoint x="240" y="130" as="targetPoint" />
          </mxGeometry>
        </mxCell>
        <mxCell id="aPKI6MGES9-VmgoMAELp-31" value="" style="edgeStyle=orthogonalEdgeStyle;rounded=0;orthogonalLoop=1;jettySize=auto;html=1;" parent="1" source="aPKI6MGES9-VmgoMAELp-2" target="aPKI6MGES9-VmgoMAELp-5" edge="1">
          <mxGeometry relative="1" as="geometry">
            <mxPoint x="75" y="245" as="targetPoint" />
            <Array as="points">
              <mxPoint x="50" y="140" />
              <mxPoint x="50" y="290" />
              <mxPoint x="90" y="290" />
            </Array>
          </mxGeometry>
        </mxCell>
        <mxCell id="aPKI6MGES9-VmgoMAELp-33" value="" style="edgeStyle=orthogonalEdgeStyle;rounded=0;orthogonalLoop=1;jettySize=auto;html=1;" parent="1" source="aPKI6MGES9-VmgoMAELp-2" target="aPKI6MGES9-VmgoMAELp-20" edge="1">
          <mxGeometry relative="1" as="geometry">
            <mxPoint x="30" y="480" as="targetPoint" />
            <Array as="points">
              <mxPoint x="20" y="125" />
              <mxPoint x="20" y="520" />
            </Array>
          </mxGeometry>
        </mxCell>
        <mxCell id="aPKI6MGES9-VmgoMAELp-2" value="Admin" style="shape=umlActor;verticalLabelPosition=middle;verticalAlign=middle;html=1;outlineConnect=0;labelPosition=left;align=right;" parent="1" vertex="1">
          <mxGeometry x="60" y="90" width="30" height="70" as="geometry" />
        </mxCell>
        <mxCell id="aPKI6MGES9-VmgoMAELp-24" style="edgeStyle=orthogonalEdgeStyle;rounded=0;orthogonalLoop=1;jettySize=auto;html=1;exitX=0.25;exitY=0.1;exitDx=0;exitDy=0;exitPerimeter=0;entryX=0.125;entryY=1.083;entryDx=0;entryDy=0;entryPerimeter=0;" parent="1" source="aPKI6MGES9-VmgoMAELp-5" target="aPKI6MGES9-VmgoMAELp-22" edge="1">
          <mxGeometry relative="1" as="geometry" />
        </mxCell>
        <mxCell id="aPKI6MGES9-VmgoMAELp-39" value="" style="edgeStyle=orthogonalEdgeStyle;rounded=0;orthogonalLoop=1;jettySize=auto;html=1;entryX=0.125;entryY=1.1;entryDx=0;entryDy=0;entryPerimeter=0;" parent="1" source="aPKI6MGES9-VmgoMAELp-5" target="aPKI6MGES9-VmgoMAELp-34" edge="1">
          <mxGeometry relative="1" as="geometry">
            <mxPoint x="165" y="360" as="targetPoint" />
            <Array as="points">
              <mxPoint x="455" y="390" />
            </Array>
          </mxGeometry>
        </mxCell>
        <mxCell id="aPKI6MGES9-VmgoMAELp-46" value="" style="edgeStyle=orthogonalEdgeStyle;rounded=0;orthogonalLoop=1;jettySize=auto;html=1;" parent="1" source="aPKI6MGES9-VmgoMAELp-5" target="aPKI6MGES9-VmgoMAELp-41" edge="1">
          <mxGeometry relative="1" as="geometry">
            <mxPoint x="150" y="475" as="targetPoint" />
            <Array as="points">
              <mxPoint x="95" y="460" />
              <mxPoint x="690" y="460" />
            </Array>
          </mxGeometry>
        </mxCell>
        <mxCell id="aPKI6MGES9-VmgoMAELp-5" value="Professor" style="shape=umlActor;verticalLabelPosition=middle;verticalAlign=middle;html=1;outlineConnect=0;labelPosition=left;align=right;" parent="1" vertex="1">
          <mxGeometry x="80" y="330" width="30" height="60" as="geometry" />
        </mxCell>
        <mxCell id="aPKI6MGES9-VmgoMAELp-25" style="edgeStyle=orthogonalEdgeStyle;rounded=0;orthogonalLoop=1;jettySize=auto;html=1;entryX=0.5;entryY=1;entryDx=0;entryDy=0;" parent="1" target="aPKI6MGES9-VmgoMAELp-22" edge="1">
          <mxGeometry relative="1" as="geometry">
            <mxPoint x="120" y="520" as="sourcePoint" />
            <mxPoint x="300" y="180" as="targetPoint" />
            <Array as="points">
              <mxPoint x="120" y="510" />
              <mxPoint x="300" y="510" />
            </Array>
          </mxGeometry>
        </mxCell>
        <mxCell id="aPKI6MGES9-VmgoMAELp-36" value="" style="edgeStyle=orthogonalEdgeStyle;rounded=0;orthogonalLoop=1;jettySize=auto;html=1;entryX=0.325;entryY=1.033;entryDx=0;entryDy=0;entryPerimeter=0;" parent="1" source="aPKI6MGES9-VmgoMAELp-20" target="aPKI6MGES9-VmgoMAELp-34" edge="1">
          <mxGeometry relative="1" as="geometry">
            <mxPoint x="480" y="180" as="targetPoint" />
          </mxGeometry>
        </mxCell>
        <mxCell id="aPKI6MGES9-VmgoMAELp-44" value="" style="edgeStyle=orthogonalEdgeStyle;rounded=0;orthogonalLoop=1;jettySize=auto;html=1;entryX=0.858;entryY=1.1;entryDx=0;entryDy=0;entryPerimeter=0;" parent="1" source="aPKI6MGES9-VmgoMAELp-20" target="aPKI6MGES9-VmgoMAELp-41" edge="1">
          <mxGeometry relative="1" as="geometry">
            <mxPoint x="95" y="650" as="targetPoint" />
            <Array as="points">
              <mxPoint x="95" y="600" />
              <mxPoint x="733" y="600" />
            </Array>
          </mxGeometry>
        </mxCell>
        <mxCell id="aPKI6MGES9-VmgoMAELp-20" value="Student" style="shape=umlActor;verticalLabelPosition=middle;verticalAlign=middle;html=1;outlineConnect=0;labelPosition=left;align=right;" parent="1" vertex="1">
          <mxGeometry x="70" y="510" width="50" height="60" as="geometry" />
        </mxCell>
        <mxCell id="aPKI6MGES9-VmgoMAELp-35" value="" style="edgeStyle=orthogonalEdgeStyle;rounded=0;orthogonalLoop=1;jettySize=auto;html=1;" parent="1" source="aPKI6MGES9-VmgoMAELp-22" target="aPKI6MGES9-VmgoMAELp-34" edge="1">
          <mxGeometry relative="1" as="geometry" />
        </mxCell>
        <mxCell id="aPKI6MGES9-VmgoMAELp-22" value="Semester" style="rounded=1;whiteSpace=wrap;html=1;" parent="1" vertex="1">
          <mxGeometry x="240" y="110" width="120" height="60" as="geometry" />
        </mxCell>
        <mxCell id="aPKI6MGES9-VmgoMAELp-26" value="view" style="text;html=1;align=center;verticalAlign=middle;resizable=0;points=[];autosize=1;strokeColor=none;fillColor=none;" parent="1" vertex="1">
          <mxGeometry x="125" y="285" width="50" height="30" as="geometry" />
        </mxCell>
        <mxCell id="aPKI6MGES9-VmgoMAELp-27" value="Add/Delete/Edit" style="text;html=1;align=center;verticalAlign=middle;resizable=0;points=[];autosize=1;strokeColor=none;fillColor=none;" parent="1" vertex="1">
          <mxGeometry x="90" y="70" width="110" height="30" as="geometry" />
        </mxCell>
        <mxCell id="aPKI6MGES9-VmgoMAELp-32" value="Add/Remove" style="text;html=1;align=center;verticalAlign=middle;resizable=0;points=[];autosize=1;strokeColor=none;fillColor=none;" parent="1" vertex="1">
          <mxGeometry x="50" y="200" width="90" height="30" as="geometry" />
        </mxCell>
        <mxCell id="aPKI6MGES9-VmgoMAELp-42" value="" style="edgeStyle=orthogonalEdgeStyle;rounded=0;orthogonalLoop=1;jettySize=auto;html=1;" parent="1" source="aPKI6MGES9-VmgoMAELp-34" target="aPKI6MGES9-VmgoMAELp-41" edge="1">
          <mxGeometry relative="1" as="geometry" />
        </mxCell>
        <mxCell id="aPKI6MGES9-VmgoMAELp-34" value="Subject" style="whiteSpace=wrap;html=1;rounded=1;" parent="1" vertex="1">
          <mxGeometry x="440" y="110" width="120" height="60" as="geometry" />
        </mxCell>
        <mxCell id="aPKI6MGES9-VmgoMAELp-37" value="View" style="text;html=1;align=center;verticalAlign=middle;resizable=0;points=[];autosize=1;strokeColor=none;fillColor=none;" parent="1" vertex="1">
          <mxGeometry x="345" y="515" width="50" height="30" as="geometry" />
        </mxCell>
        <mxCell id="aPKI6MGES9-VmgoMAELp-40" value="Add&lt;br&gt;/Delete/Edit&amp;nbsp;" style="text;html=1;align=center;verticalAlign=middle;resizable=0;points=[];autosize=1;strokeColor=none;fillColor=none;" parent="1" vertex="1">
          <mxGeometry x="120" y="350" width="90" height="40" as="geometry" />
        </mxCell>
        <mxCell id="aPKI6MGES9-VmgoMAELp-41" value="Grades" style="rounded=1;whiteSpace=wrap;html=1;" parent="1" vertex="1">
          <mxGeometry x="630" y="110" width="120" height="60" as="geometry" />
        </mxCell>
        <mxCell id="aPKI6MGES9-VmgoMAELp-45" value="View" style="text;html=1;align=center;verticalAlign=middle;resizable=0;points=[];autosize=1;strokeColor=none;fillColor=none;" parent="1" vertex="1">
          <mxGeometry x="375" y="570" width="50" height="30" as="geometry" />
        </mxCell>
        <mxCell id="aPKI6MGES9-VmgoMAELp-47" value="Add&lt;br&gt;/Delete/Edit&amp;nbsp;" style="text;html=1;align=center;verticalAlign=middle;resizable=0;points=[];autosize=1;strokeColor=none;fillColor=none;" parent="1" vertex="1">
          <mxGeometry x="130" y="420" width="90" height="40" as="geometry" />
        </mxCell>
        <mxCell id="aPKI6MGES9-VmgoMAELp-48" value="1 - m" style="text;html=1;align=center;verticalAlign=middle;resizable=0;points=[];autosize=1;strokeColor=none;fillColor=none;" parent="1" vertex="1">
          <mxGeometry x="375" y="115" width="50" height="30" as="geometry" />
        </mxCell>
        <mxCell id="aPKI6MGES9-VmgoMAELp-49" value="1 - 1" style="text;html=1;align=center;verticalAlign=middle;resizable=0;points=[];autosize=1;strokeColor=none;fillColor=none;" parent="1" vertex="1">
          <mxGeometry x="575" y="110" width="50" height="30" as="geometry" />
        </mxCell>
        <mxCell id="aPKI6MGES9-VmgoMAELp-50" value="Add/Remove" style="text;html=1;align=center;verticalAlign=middle;resizable=0;points=[];autosize=1;strokeColor=none;fillColor=none;" parent="1" vertex="1">
          <mxGeometry x="-80" y="315" width="90" height="30" as="geometry" />
        </mxCell>
      </root>
    </mxGraphModel>
  </diagram>
</mxfile>
